<svg width="27" height="20" viewBox="0 0 27 20" fill="none" xmlns="http://www.w3.org/2000/svg">
<path d="M22.8584 1.875C21.1144 1.14375 19.2831 0.575 17.2774 0.25C17.0158 0.65625 16.7542 1.225 16.5798 1.63125C14.4869 1.30625 12.4812 1.30625 10.3883 1.63125C10.2139 1.225 9.86507 0.65625 9.69066 0.25C7.77218 0.575 5.85369 1.14375 4.10961 1.875C0.621457 6.83125 -0.337786 11.7063 0.0982337 16.5C2.45274 18.125 4.72004 19.1 6.90014 19.75C7.42336 19.0187 7.94658 18.2875 8.3826 17.475C7.59777 17.15 6.81293 16.825 6.1153 16.4187C6.28971 16.2563 6.46412 16.175 6.63853 16.0125C11.0859 17.9625 15.8821 17.9625 20.3295 16.0125C20.5039 16.175 20.6784 16.2563 20.8528 16.4187C20.1551 16.825 19.3703 17.15 18.5855 17.475C19.0215 18.2875 19.4575 19.0187 20.0679 19.75C22.3352 19.1 24.6025 18.125 26.8698 16.5C27.4803 10.975 25.9106 6.18125 22.8584 1.875ZM8.99303 13.575C7.68497 13.575 6.55132 12.4375 6.55132 10.975C6.55132 9.59375 7.59777 8.375 8.99303 8.375C10.3883 8.375 11.4347 9.5125 11.4347 10.975C11.4347 12.3562 10.3883 13.575 8.99303 13.575ZM17.975 13.575C16.667 13.575 15.5333 12.4375 15.5333 10.975C15.5333 9.59375 16.5798 8.375 17.975 8.375C19.3703 8.375 20.4167 9.5125 20.4167 10.975C20.4167 12.3562 19.3703 13.575 17.975 13.575Z" fill="#017BFF"/>
</svg>
