<svg width="143" height="40" viewBox="0 0 143 40" fill="none" xmlns="http://www.w3.org/2000/svg">
<path d="M24.4583 28.4199C24.6874 28.2669 25.0047 28.3651 25.0987 28.6182L28.6615 38.2026C28.7761 38.5108 28.4874 38.8174 28.1583 38.737L15.0407 35.5318C14.6879 35.4456 14.6042 34.999 14.9035 34.7992L24.4583 28.4199Z" fill="white"/>
<path d="M26.7593 26.3044C26.7429 26.2601 26.7345 26.2135 26.7345 26.1665V16.507C26.7345 16.2338 26.462 16.0374 26.1903 16.1148L14.95 19.3184C14.6783 19.3958 14.4058 19.1995 14.4058 18.9262V12.6836C14.4058 12.556 14.4676 12.4357 14.5729 12.3583L29.2205 1.59307C29.4241 1.44345 29.7176 1.50058 29.8451 1.71463L38.6937 16.5702C38.7563 16.6754 38.7673 16.8021 38.7236 16.9159L31.2739 36.3165C31.1364 36.6744 30.6106 36.6717 30.4771 36.3124L26.7593 26.3044Z" fill="white"/>
<path d="M10.6552 2.43033C10.726 2.36351 10.8187 2.32268 10.9174 2.31492L24.4367 1.25152C24.859 1.21831 25.0651 1.73716 24.7279 1.98457L13.2047 10.4388C13.098 10.5171 12.9593 10.5421 12.8305 10.5063L5.24246 8.39677C4.93034 8.31 4.83116 7.93085 5.06324 7.71166L10.6552 2.43033Z" fill="white"/>
<path d="M3.13024 10.5195C3.16256 10.27 3.41836 10.1075 3.66873 10.1773L11.7107 12.4198C11.892 12.4704 12.0169 12.6305 12.0169 12.8126V21.8919C12.0169 22.1653 12.2896 22.3617 12.5613 22.284L23.7237 19.0946C23.9954 19.017 24.2681 19.2134 24.2681 19.4867V25.2537C24.2681 25.3877 24.2001 25.5131 24.0861 25.5895L11.5661 33.9824C11.4028 34.0918 11.1826 34.0771 11.0365 33.947L1.38639 25.3546C1.28588 25.2651 1.23631 25.1343 1.25328 25.0034L3.13024 10.5195Z" fill="white"/>
<path d="M63.3597 16.546C63.2927 15.8759 63.0051 15.3554 62.4969 14.9844C61.9887 14.6134 61.299 14.4279 60.4278 14.4279C59.8358 14.4279 59.336 14.511 58.9283 14.6771C58.5206 14.8377 58.2079 15.0619 57.9901 15.3499C57.7779 15.6378 57.6717 15.9645 57.6717 16.33C57.6606 16.6346 57.7248 16.9004 57.8644 17.1274C58.0096 17.3544 58.2079 17.551 58.4592 17.7171C58.7105 17.8777 59.0009 18.0189 59.3304 18.1407C59.6599 18.257 60.0117 18.3567 60.3859 18.4397L61.9273 18.8052C62.6756 18.9713 63.3625 19.1928 63.988 19.4697C64.6135 19.7466 65.1552 20.0871 65.6131 20.4913C66.0711 20.8956 66.4257 21.3718 66.677 21.92C66.9339 22.4682 67.0652 23.0967 67.0707 23.8055C67.0652 24.8465 66.7971 25.7491 66.2666 26.5132C65.7416 27.2719 64.9821 27.8616 63.988 28.2824C62.9995 28.6977 61.8072 28.9054 60.411 28.9054C59.026 28.9054 57.8197 28.695 56.7922 28.2741C55.7702 27.8533 54.9716 27.2303 54.3963 26.4053C53.8267 25.5747 53.5279 24.5475 53.5 23.3237H57.01C57.0491 23.8941 57.2138 24.3703 57.5042 24.7524C57.8002 25.1289 58.1939 25.4141 58.6854 25.6079C59.1824 25.7962 59.7437 25.8903 60.3691 25.8903C60.9835 25.8903 61.5168 25.8017 61.9691 25.6245C62.4271 25.4473 62.7817 25.2009 63.033 24.8853C63.2843 24.5696 63.41 24.2069 63.41 23.7972C63.41 23.4151 63.2955 23.0939 63.0665 22.8337C62.8431 22.5734 62.5137 22.3519 62.078 22.1692C61.648 21.9864 61.1203 21.8203 60.4948 21.6708L58.6267 21.2057C57.1803 20.8568 56.0382 20.3114 55.2005 19.5694C54.3628 18.8274 53.9468 17.8279 53.9524 16.5709C53.9468 15.5409 54.2232 14.6411 54.7817 13.8714C55.3457 13.1017 56.1192 12.5009 57.1021 12.069C58.085 11.6371 59.2019 11.4211 60.4529 11.4211C61.7262 11.4211 62.8376 11.6371 63.787 12.069C64.7419 12.5009 65.4847 13.1017 66.0152 13.8714C66.5458 14.6411 66.8194 15.5326 66.8362 16.546H63.3597Z" fill="white"/>
<path d="M68.8571 14.619V11.6537H82.9473V14.619H77.6949V28.6645H74.1095V14.619H68.8571Z" fill="white"/>
<path d="M100.25 20.1591C100.25 22.0141 99.8953 23.5923 99.1861 24.8936C98.4824 26.1948 97.5218 27.1888 96.3044 27.8754C95.0925 28.5565 93.7299 28.8971 92.2164 28.8971C90.6918 28.8971 89.3235 28.5538 88.1117 27.8671C86.8998 27.1805 85.942 26.1865 85.2384 24.8853C84.5347 23.584 84.1829 22.0086 84.1829 20.1591C84.1829 18.3041 84.5347 16.7259 85.2384 15.4246C85.942 14.1234 86.8998 13.1322 88.1117 12.4511C89.3235 11.7644 90.6918 11.4211 92.2164 11.4211C93.7299 11.4211 95.0925 11.7644 96.3044 12.4511C97.5218 13.1322 98.4824 14.1234 99.1861 15.4246C99.8953 16.7259 100.25 18.3041 100.25 20.1591ZM96.5724 20.1591C96.5724 18.9575 96.3909 17.9442 96.0279 17.1191C95.6705 16.294 95.1651 15.6683 94.5117 15.2419C93.8583 14.8155 93.0932 14.6023 92.2164 14.6023C91.3396 14.6023 90.5745 14.8155 89.9211 15.2419C89.2677 15.6683 88.7595 16.294 88.3965 17.1191C88.0391 17.9442 87.8604 18.9575 87.8604 20.1591C87.8604 21.3607 88.0391 22.3741 88.3965 23.1991C88.7595 24.0242 89.2677 24.6499 89.9211 25.0763C90.5745 25.5027 91.3396 25.7159 92.2164 25.7159C93.0932 25.7159 93.8583 25.5027 94.5117 25.0763C95.1651 24.6499 95.6705 24.0242 96.0279 23.1991C96.3909 22.3741 96.5724 21.3607 96.5724 20.1591Z" fill="white"/>
<path d="M117.287 11.6537V28.6645H114.154L106.69 17.958H106.564V28.6645H102.937V11.6537H106.12L113.525 22.3519H113.676V11.6537H117.287Z" fill="white"/>
<path d="M122.302 28.8805C121.75 28.8805 121.275 28.6867 120.878 28.299C120.487 27.9059 120.292 27.4352 120.292 26.887C120.292 26.3444 120.487 25.8792 120.878 25.4916C121.275 25.104 121.75 24.9102 122.302 24.9102C122.839 24.9102 123.308 25.104 123.71 25.4916C124.112 25.8792 124.313 26.3444 124.313 26.887C124.313 27.2525 124.218 27.5875 124.028 27.892C123.844 28.1911 123.601 28.4319 123.299 28.6147C122.998 28.7919 122.665 28.8805 122.302 28.8805Z" fill="white"/>
<path d="M134.162 15.9064V18.5643H126.221V15.9064H134.162ZM128.039 28.6645V14.9844C128.039 14.0597 128.22 13.2928 128.583 12.6836C128.952 12.0745 129.454 11.6177 130.091 11.3131C130.728 11.0086 131.451 10.8563 132.261 10.8563C132.808 10.8563 133.308 10.8978 133.76 10.9809C134.218 11.064 134.559 11.1387 134.782 11.2052L134.145 13.8631C134.006 13.8188 133.833 13.7773 133.626 13.7385C133.425 13.6998 133.218 13.6804 133.006 13.6804C132.481 13.6804 132.115 13.8022 131.909 14.0458C131.702 14.2839 131.599 14.619 131.599 15.0509V28.6645H128.039Z" fill="white"/>
<path d="M136.342 28.6645V15.9064H139.911V28.6645H136.342ZM138.135 14.2618C137.604 14.2618 137.149 14.0874 136.769 13.7385C136.395 13.3841 136.208 12.9605 136.208 12.4677C136.208 11.9804 136.395 11.5623 136.769 11.2135C137.149 10.8591 137.604 10.6819 138.135 10.6819C138.665 10.6819 139.118 10.8591 139.492 11.2135C139.872 11.5623 140.062 11.9804 140.062 12.4677C140.062 12.9605 139.872 13.3841 139.492 13.7385C139.118 14.0874 138.665 14.2618 138.135 14.2618Z" fill="white"/>
</svg>
