<svg width="38" height="38" viewBox="0 0 38 38" fill="none" xmlns="http://www.w3.org/2000/svg">
<path d="M23.4583 27.4199C23.6874 27.2669 24.0047 27.3651 24.0987 27.6182L27.6615 37.2026C27.7761 37.5108 27.4874 37.8174 27.1583 37.737L14.0407 34.5318C13.6879 34.4456 13.6042 33.999 13.9035 33.7992L23.4583 27.4199Z" fill="white"/>
<path d="M25.7593 25.3044C25.7429 25.2601 25.7345 25.2135 25.7345 25.1665V15.507C25.7345 15.2338 25.462 15.0374 25.1903 15.1148L13.95 18.3184C13.6783 18.3958 13.4058 18.1995 13.4058 17.9262V11.6836C13.4058 11.556 13.4676 11.4357 13.5729 11.3583L28.2205 0.593072C28.4241 0.443454 28.7176 0.500584 28.8451 0.71463L37.6937 15.5702C37.7563 15.6754 37.7673 15.8021 37.7236 15.9159L30.2739 35.3165C30.1364 35.6744 29.6106 35.6717 29.4771 35.3124L25.7593 25.3044Z" fill="white"/>
<path d="M9.65521 1.43033C9.72595 1.36351 9.81871 1.32268 9.9174 1.31492L23.4367 0.251522C23.859 0.218305 24.0651 0.737156 23.7279 0.984565L12.2047 9.43881C12.098 9.51706 11.9593 9.54208 11.8305 9.50628L4.24246 7.39677C3.93034 7.31 3.83116 6.93085 4.06324 6.71166L9.65521 1.43033Z" fill="white"/>
<path d="M2.13024 9.51946C2.16256 9.27004 2.41836 9.10752 2.66873 9.17733L10.7107 11.4198C10.892 11.4704 11.0169 11.6305 11.0169 11.8126V20.8919C11.0169 21.1653 11.2896 21.3617 11.5613 21.284L22.7237 18.0947C22.9954 18.017 23.2681 18.2134 23.2681 18.4867V24.2537C23.2681 24.3877 23.2001 24.5131 23.0861 24.5895L10.5661 32.9824C10.4028 33.0918 10.1826 33.0771 10.0365 32.947L0.386391 24.3546C0.285879 24.2651 0.236312 24.1343 0.253278 24.0034L2.13024 9.51946Z" fill="white"/>
</svg>
