<svg width="30" height="26" viewBox="0 0 30 26" fill="none" xmlns="http://www.w3.org/2000/svg">
<path d="M30 13.2048C30 11.4639 28.5215 10.0813 26.7204 10.0813C25.8333 10.0813 25.0269 10.4142 24.4355 10.9518C22.1774 9.41566 19.086 8.41717 15.6452 8.28916L17.1505 1.58133L22.043 2.57982C22.0968 3.75753 23.1183 4.70482 24.3817 4.70482C25.672 4.70482 26.7204 3.70633 26.7204 2.47741C26.7204 1.24849 25.672 0.25 24.3817 0.25C23.4677 0.25 22.6613 0.762048 22.2849 1.50452L16.828 0.403614C16.6667 0.378012 16.5054 0.403614 16.3979 0.480422C16.2634 0.557229 16.1828 0.685241 16.1559 0.838855L14.4892 8.31476C10.9946 8.41717 7.84946 9.41566 5.56452 10.9774C4.97312 10.4398 4.16667 10.1069 3.27957 10.1069C1.45161 10.1069 0 11.5151 0 13.2304C0 14.5105 0.806452 15.5858 1.93548 16.0723C1.88172 16.3795 1.85484 16.6867 1.85484 17.0196C1.85484 21.8328 7.74194 25.75 15 25.75C22.2581 25.75 28.1452 21.8584 28.1452 17.0196C28.1452 16.7123 28.1183 16.3795 28.0645 16.0723C29.1936 15.5858 30 14.4849 30 13.2048ZM7.47312 15.4322C7.47312 14.2033 8.52151 13.2048 9.81183 13.2048C11.1022 13.2048 12.1505 14.2033 12.1505 15.4322C12.1505 16.6611 11.1022 17.6596 9.81183 17.6596C8.52151 17.6852 7.47312 16.6611 7.47312 15.4322ZM20.5645 21.3464C18.9516 22.8825 15.8871 22.9849 15 22.9849C14.086 22.9849 11.0215 22.8569 9.43548 21.3464C9.19355 21.116 9.19355 20.7575 9.43548 20.5271C9.67742 20.2967 10.0538 20.2967 10.2957 20.5271C11.3172 21.5 13.4677 21.8328 15 21.8328C16.5323 21.8328 18.7097 21.5 19.7043 20.5271C19.9462 20.2967 20.3226 20.2967 20.5645 20.5271C20.7796 20.7575 20.7796 21.116 20.5645 21.3464ZM20.1344 17.6852C18.8441 17.6852 17.7957 16.6867 17.7957 15.4578C17.7957 14.2289 18.8441 13.2304 20.1344 13.2304C21.4247 13.2304 22.4731 14.2289 22.4731 15.4578C22.4731 16.6611 21.4247 17.6852 20.1344 17.6852Z" fill="#017BFF"/>
</svg>
