<svg width="25" height="20" viewBox="0 0 25 20" fill="none" xmlns="http://www.w3.org/2000/svg">
<path fill-rule="evenodd" clip-rule="evenodd" d="M2.55012 8.64331C8.99458 5.89185 13.2909 4.07631 15.439 3.20105C21.5785 0.700897 22.8515 0.263262 23.6824 0.250263C23.8637 0.24593 24.2747 0.293594 24.5399 0.501578C24.7654 0.679232 24.8272 0.917548 24.8538 1.08654C24.8803 1.25552 24.9201 1.64116 24.8891 1.94014C24.5576 5.36755 23.1167 13.6783 22.3874 17.5173C22.078 19.1422 21.468 19.6838 20.8757 19.7402C19.5939 19.8571 18.6171 18.9082 17.375 18.1109C15.4302 16.863 14.3296 16.0831 12.4422 14.8612C10.2587 13.453 11.6731 12.6773 12.9196 11.4121C13.2467 11.0828 18.8999 6.03917 19.0104 5.57987C19.0237 5.52354 19.037 5.31122 18.9088 5.19857C18.7806 5.08591 18.5905 5.1249 18.4491 5.15523C18.2546 5.19857 15.1473 7.21342 9.12718 11.1955C8.24317 11.7891 7.44755 12.0794 6.7315 12.0621C5.94031 12.0447 4.42423 11.6244 3.29711 11.2648C1.91363 10.8228 0.813039 10.5888 0.90586 9.83922C0.958901 9.44925 1.50699 9.05061 2.55012 8.64331Z" fill="#017BFF"/>
</svg>
