<svg width="26" height="22" viewBox="0 0 26 22" fill="none" xmlns="http://www.w3.org/2000/svg">
<path fill-rule="evenodd" clip-rule="evenodd" d="M25.75 2.99569C24.8074 3.42241 23.8012 3.7069 22.744 3.82328C23.8267 3.16379 24.6546 2.12931 25.0367 0.887931C24.0305 1.49569 22.9096 1.93534 21.7123 2.18103C20.757 1.14655 19.4068 0.5 17.8911 0.5C14.9997 0.5 12.6688 2.87931 12.6688 5.80172C12.6688 6.21552 12.7198 6.62931 12.8089 7.00431C8.46553 6.79741 4.61888 4.67672 2.03322 1.46983C1.58741 2.25862 1.31993 3.16379 1.31993 4.13362C1.31993 5.96983 2.24975 7.59914 3.65085 8.5431C2.79745 8.51724 1.99501 8.27155 1.28172 7.88362C1.28172 7.90948 1.28172 7.92241 1.28172 7.94828C1.28172 10.5216 3.07767 12.6681 5.47228 13.1466C5.03921 13.2629 4.56793 13.3276 4.09665 13.3276C3.75275 13.3276 3.43432 13.2888 3.11588 13.2371C3.77822 15.3448 5.71429 16.8836 7.99426 16.9224C6.1983 18.3448 3.95654 19.1983 1.49825 19.1983C1.07792 19.1983 0.657592 19.1724 0.25 19.1207C2.55544 20.6207 5.30669 21.5 8.26174 21.5C17.8784 21.5 23.1389 13.4181 23.1389 6.39655C23.1389 6.16379 23.1389 5.93103 23.1261 5.71121C24.1578 4.98707 25.0367 4.0431 25.75 2.99569Z" fill="#017BFF"/>
</svg>
