<svg width="20" height="20" viewBox="0 0 20 20" fill="none" xmlns="http://www.w3.org/2000/svg">
<path d="M4.5861 0.101311C5.52147 -3.05846e-05 6.69139 -1.67337e-05 8.14227 4.45637e-07H9C9.55229 4.45637e-07 10 0.447716 10 1C10 1.55229 9.55229 2 9 2H8.2C6.67783 2 5.61653 2.00137 4.80152 2.08967C4.00523 2.17595 3.5635 2.33548 3.23665 2.57295C2.98196 2.75799 2.75799 2.98196 2.57295 3.23665C2.33548 3.5635 2.17595 4.00523 2.08967 4.80152C2.00137 5.61653 2 6.67783 2 8.2V11.8C2 13.3222 2.00137 14.3835 2.08967 15.1985C2.17595 15.9948 2.33548 16.4365 2.57295 16.7634C2.75799 17.018 2.98196 17.242 3.23665 17.4271C3.5635 17.6645 4.00523 17.8241 4.80152 17.9103C5.61653 17.9986 6.67783 18 8.2 18H11.8C13.3222 18 14.3835 17.9986 15.1985 17.9103C15.9948 17.8241 16.4365 17.6645 16.7634 17.4271C17.018 17.242 17.242 17.018 17.4271 16.7634C17.6645 16.4365 17.8241 15.9948 17.9103 15.1985C17.9986 14.3835 18 13.3222 18 11.8V11C18 10.4477 18.4477 10 19 10C19.5523 10 20 10.4477 20 11V11.8577C20 13.3086 20 14.4785 19.8987 15.4139C19.794 16.3804 19.5715 17.2143 19.0451 17.9389C18.7367 18.3634 18.3634 18.7367 17.9389 19.0451C17.2143 19.5715 16.3804 19.794 15.4139 19.8987C14.4785 20 13.3087 20 11.8578 20H8.14226C6.69141 20 5.52145 20 4.5861 19.8987C3.61963 19.794 2.78569 19.5715 2.06107 19.0451C1.6366 18.7367 1.26331 18.3634 0.954916 17.9389C0.428456 17.2143 0.206021 16.3804 0.101311 15.4139C-3.05846e-05 14.4785 -1.67337e-05 13.3086 4.45637e-07 11.8577V8.14229C-1.67337e-05 6.6914 -3.05846e-05 5.52147 0.101311 4.5861C0.206021 3.61963 0.428456 2.78569 0.954916 2.06107C1.26331 1.6366 1.6366 1.26331 2.06107 0.954916C2.78569 0.428456 3.61963 0.206021 4.5861 0.101311Z" fill="black"/>
<path d="M19 7C18.4477 7 18 6.55229 18 6V3.41421L11.7071 9.70711C11.3166 10.0976 10.6834 10.0976 10.2929 9.70711C9.90237 9.31658 9.90237 8.68342 10.2929 8.29289L16.5858 2L14 2C13.4477 2 13 1.55229 13 1C13 0.447717 13.4477 4.45637e-07 14 4.45637e-07H19C19.2728 4.45637e-07 19.5201 0.109254 19.7006 0.286396L19.7136 0.299452C19.8063 0.393796 19.8764 0.501952 19.9241 0.617218C19.973 0.735125 20 0.864412 20 1V6C20 6.55229 19.5523 7 19 7Z" fill="black"/>
</svg>
